<svg width="296" height="106" viewBox="0 0 296 106" fill="none" xmlns="http://www.w3.org/2000/svg">
<path d="M73.4829 98.357L84.3054 47.9297C84.4156 47.215 84.6659 46.5292 85.0418 45.9115C85.3254 45.5317 85.92 45.3029 86.8257 45.2296C87.7314 45.1564 89.1906 45.1152 91.2215 45.1152L80.0514 97.1397C80.0306 97.3041 79.9775 97.4628 79.8951 97.6065C79.8126 97.7503 79.7025 97.8763 79.5711 97.9772C79.0567 98.19 78.5039 98.2944 77.9473 98.2838C77.0965 98.3357 75.6084 98.3601 73.4829 98.357Z" fill="#3F59A3"/>
<path d="M86.4824 98.358L94.2585 62.1541C95.51 61.6512 96.7936 61.2323 98.1008 60.9002C99.5523 60.5157 101.039 60.1984 102.561 59.9483C103.998 59.7024 105.453 59.5768 106.911 59.573C109.545 59.573 111.575 59.9147 112.999 60.5981C113.664 60.8905 114.25 61.3353 114.711 61.8966C115.172 62.4579 115.494 63.1199 115.652 63.829C115.996 65.3026 115.9 67.2858 115.364 69.7784L109.472 97.1406C109.436 97.4692 109.272 97.7702 109.015 97.9781C108.486 98.1927 107.92 98.2971 107.35 98.2847C106.476 98.3351 104.98 98.358 102.849 98.358L108.598 71.586C109.108 69.2033 109.193 67.5039 108.855 66.4879C108.516 65.472 107.408 64.9655 105.529 64.9686C104.539 64.9815 103.551 65.0826 102.579 65.2706C101.514 65.4584 100.486 65.8186 99.5371 66.3369L92.9228 97.1406C92.8794 97.4669 92.7164 97.7654 92.4654 97.9781C91.9529 98.1972 91.3987 98.3019 90.8416 98.2847C89.9664 98.3366 88.5133 98.361 86.4824 98.358Z" fill="#3F59A3"/>
<path d="M127.374 99.1217C125.83 99.135 124.292 98.9427 122.799 98.5497C121.406 98.1655 120.192 97.3038 119.369 96.115C118.472 94.8733 117.971 93.0229 117.864 90.5638C117.757 88.1048 118.145 84.8205 119.026 80.7109C120.105 75.6921 121.499 71.6237 123.207 68.5056C124.914 65.3876 126.794 63.1177 128.847 61.6959C130.689 60.3509 132.902 59.6091 135.182 59.5725C136.206 59.5528 137.227 59.6807 138.214 59.9523C138.98 60.1498 139.681 60.5424 140.25 61.0919L143.649 45.2713C143.747 44.5227 144.065 43.8202 144.563 43.2531C145.142 42.8117 145.849 42.5722 146.576 42.5712C147.491 42.4934 148.776 42.4568 150.4 42.4568L138.736 96.8381C137.144 97.5262 135.489 98.061 133.796 98.4352C131.688 98.9099 129.534 99.1403 127.374 99.1217ZM128.796 93.566C129.633 93.5692 130.467 93.4801 131.285 93.3005C132.072 93.1273 132.829 92.8324 133.526 92.4264L139.207 65.9795C138.86 65.5863 138.402 65.3072 137.894 65.1786C137.247 65.0396 136.585 64.9767 135.923 64.991C135.034 65.0075 134.159 65.215 133.357 65.5996C132.302 66.132 131.384 66.8992 130.672 67.842C129.612 69.2326 128.768 70.7755 128.17 72.4184C127.243 74.9057 126.517 77.4628 125.997 80.0656C125.471 82.3602 125.097 84.687 124.876 87.0309C124.717 88.3919 124.807 89.7705 125.141 91.0993C125.344 91.8934 125.832 92.5846 126.514 93.0397C127.214 93.4161 128.002 93.5978 128.796 93.566Z" fill="#3F59A3"/>
<path d="M145.333 98.3587L152.894 63.1433C152.994 62.3854 153.332 61.6789 153.859 61.1252C154.451 60.688 155.167 60.4494 155.903 60.4433C156.818 60.367 158.119 60.3289 159.805 60.3289L151.906 97.1414C151.862 97.4675 151.699 97.7658 151.448 97.9789C150.923 98.2 150.357 98.3046 149.788 98.2855C148.891 98.3358 147.4 98.3587 145.333 98.3587ZM157.587 55.0797C157.18 55.0888 156.777 54.9919 156.419 54.7986C156.06 54.6052 155.758 54.3221 155.542 53.9768C155.13 53.2904 155.117 52.0639 155.501 50.2883C155.768 49.0715 156.323 47.9368 157.12 46.9795C157.485 46.5658 157.938 46.2386 158.445 46.0217C158.952 45.8048 159.501 45.7037 160.052 45.7256C161.219 45.7256 161.955 46.0551 162.271 46.7141C162.586 47.3731 162.545 48.5126 162.147 50.1372C161.91 51.4609 161.342 52.703 160.496 53.748C160.141 54.1751 159.694 54.5166 159.189 54.7471C158.683 54.9777 158.133 55.0914 157.578 55.0797H157.587Z" fill="#3F59A3"/>
<path d="M168.048 99.1211C166.709 99.128 165.373 99.0131 164.055 98.7778C162.885 98.5848 161.796 98.0553 160.921 97.2539C159.996 96.3159 159.404 95.1008 159.234 93.7941C158.95 92.2687 159.092 90.1895 159.659 87.5565C160.087 85.3259 160.832 83.1682 161.873 81.1496C162.634 79.6834 163.688 78.389 164.97 77.3466C166.048 76.4953 167.295 75.8851 168.629 75.5572C169.882 75.2571 171.165 75.1035 172.453 75.0996C173.39 75.1105 174.326 75.187 175.252 75.3284C176.159 75.4357 177.041 75.6924 177.864 76.0881C178.169 74.6694 178.422 73.4917 178.623 72.5551C178.825 71.6184 179.002 70.7932 179.154 70.0793C179.413 68.8589 179.422 67.9345 179.181 67.306C179.07 66.9999 178.897 66.7201 178.672 66.4839C178.448 66.2477 178.178 66.0602 177.878 65.933C177.096 65.6285 176.26 65.4867 175.422 65.5166C173.463 65.5077 171.508 65.6792 169.58 66.0291C167.992 66.3042 166.43 66.7114 164.91 67.2465C164.687 66.652 164.591 66.0177 164.627 65.3839C164.654 64.8087 164.726 64.2365 164.842 63.6723C164.935 63.2748 165.081 62.8915 165.276 62.5328C165.465 62.1544 165.757 61.8371 166.118 61.6175C166.862 61.2148 168.325 60.7724 170.509 60.2903C173.017 59.7755 175.574 59.5346 178.134 59.5719C181.427 59.5719 183.675 60.2553 184.876 61.6221C186.078 62.9889 186.316 65.3961 185.59 68.8436L184.721 72.8754C184.111 75.7677 183.477 78.6661 182.818 81.5706C182.159 84.4751 181.533 87.2209 180.938 89.8081C180.328 92.3709 179.746 94.6148 179.191 96.54C177.727 97.2724 176.195 97.8595 174.616 98.2927C172.477 98.8799 170.266 99.1588 168.048 99.1211ZM169.768 93.9452C170.595 93.9441 171.417 93.8159 172.206 93.5653C172.863 93.3938 173.475 93.0815 173.999 92.65C174.273 91.8415 174.578 90.7249 174.914 89.3001L175.957 84.8152C176.317 83.241 176.644 81.7704 176.94 80.4036C176.418 80.1271 175.851 79.9458 175.266 79.8682C174.687 79.7744 174.101 79.7239 173.514 79.7171C172.744 79.7153 171.976 79.8044 171.227 79.9826C170.48 80.1744 169.789 80.5397 169.21 81.0489C168.489 81.7039 167.9 82.4916 167.476 83.3691C166.864 84.6504 166.419 86.0056 166.154 87.4009C165.889 88.4957 165.763 89.6198 165.779 90.7463C165.774 91.4622 165.98 92.1639 166.369 92.7644C166.702 93.2309 167.188 93.5661 167.742 93.7118C168.404 93.8787 169.085 93.9571 169.768 93.9452Z" fill="#3F59A3"/>
<path d="M184.632 98.357C184.183 97.4106 184.063 96.3406 184.294 95.3183C184.381 94.9017 184.506 94.4942 184.669 94.101C184.843 93.7084 185.04 93.3264 185.259 92.9569L205.961 65.5763H198.131C196.713 65.5763 195.401 65.6007 194.197 65.6495C192.992 65.6983 191.975 65.7746 191.146 65.8783C191.17 65.3187 191.226 64.761 191.315 64.208C191.397 63.7 191.475 63.2927 191.539 62.9906C191.653 62.2518 191.959 61.556 192.427 60.9725C192.641 60.7524 192.9 60.581 193.187 60.4697C193.473 60.3584 193.78 60.3098 194.087 60.3272H213.399C213.719 60.9054 213.817 61.581 213.674 62.2264C213.575 62.6319 213.439 63.0272 213.266 63.4071C212.976 64.0515 212.64 64.674 212.26 65.2697L192.088 92.6548H198.78C200.477 92.68 202.173 92.5913 203.857 92.3894C204.895 92.2506 205.926 92.0597 206.945 91.8174C206.96 92.2775 206.925 92.7379 206.84 93.1903C206.744 93.7486 206.657 94.2062 206.584 94.5632C206.366 95.567 205.992 96.5306 205.477 97.4189C205.059 98.0504 204.345 98.3662 203.336 98.3662L184.632 98.357Z" fill="#3F59A3"/>
<path d="M221.338 99.1222C219.65 99.1576 217.969 98.9132 216.361 98.3992C214.982 97.9257 213.844 96.9277 213.196 95.6213C212.473 94.2514 212.139 92.2607 212.194 89.6491C212.249 87.0375 212.734 83.6022 213.648 79.3431C215.14 72.3961 217.334 67.3621 220.231 64.241C223.128 61.1199 226.555 59.5639 230.513 59.573C233.197 59.573 235.295 60.1298 236.807 61.2434C238.32 62.357 239.2 64.3401 239.447 67.1927C239.7 70.0301 239.276 74.01 238.175 79.1325C236.659 86.229 234.499 91.3317 231.693 94.4406C230.417 95.9343 228.827 97.1282 227.038 97.9374C225.248 98.7466 223.301 99.1511 221.338 99.1222ZM222.637 93.896C223.808 93.8827 224.939 93.4657 225.839 92.7153C226.845 91.9281 227.83 90.4698 228.793 88.3402C229.757 86.2107 230.663 83.1689 231.51 79.2149C232.38 75.1541 232.837 72.1032 232.883 70.0621C232.928 68.0211 232.642 66.639 232.023 65.9159C231.419 65.2066 230.477 64.8542 229.214 64.8542C228.046 64.8775 226.918 65.2915 226.012 66.0303C224.979 66.8175 223.994 68.2758 223.057 70.4054C222.121 72.5349 221.228 75.5767 220.377 79.5307C219.788 82.0019 219.351 84.5068 219.069 87.0314C218.893 88.4867 218.923 89.9593 219.156 91.4064C219.375 92.3949 219.801 93.0539 220.441 93.3834C221.12 93.7306 221.874 93.9065 222.637 93.896Z" fill="#3F59A3"/>
<path d="M239.521 98.3564L247.297 62.1526C248.549 61.6497 249.832 61.2308 251.139 60.8986C252.591 60.5142 254.077 60.1969 255.599 59.9467C257.033 59.6998 258.485 59.5728 259.94 59.5669C262.575 59.5669 264.604 59.9086 266.028 60.592C266.693 60.8838 267.28 61.3284 267.741 61.8898C268.202 62.4512 268.524 63.1135 268.681 63.8229C269.026 65.2965 268.931 67.2796 268.398 69.7723L262.52 97.1528C262.498 97.3175 262.444 97.4763 262.361 97.6201C262.278 97.7638 262.167 97.8896 262.035 97.9903C261.508 98.2046 260.943 98.3089 260.375 98.2969C259.499 98.3457 257.999 98.3702 255.874 98.3702L261.619 71.5982C262.131 69.2155 262.216 67.5161 261.875 66.5001C261.533 65.4842 260.426 64.9777 258.554 64.9808C257.562 64.9935 256.573 65.0946 255.599 65.2828C254.535 65.4724 253.507 65.8325 252.557 66.3491L245.943 97.1528C245.9 97.4791 245.737 97.7776 245.486 97.9903C244.973 98.2101 244.419 98.3148 243.862 98.2969C242.993 98.3396 241.546 98.3595 239.521 98.3564Z" fill="#3F59A3"/>
<path d="M278.055 99.1204C276.717 99.1273 275.38 99.0125 274.062 98.7772C272.892 98.5841 271.803 98.0546 270.929 97.2532C270.004 96.3152 269.411 95.1002 269.241 93.7935C268.957 92.268 269.099 90.1888 269.666 87.5559C270.094 85.3252 270.84 83.1676 271.88 81.1489C272.642 79.6827 273.696 78.3884 274.977 77.3459C276.055 76.4946 277.303 75.8845 278.636 75.5566C279.889 75.2564 281.172 75.1028 282.46 75.0989C283.398 75.1099 284.333 75.1863 285.26 75.3277C286.166 75.4351 287.049 75.6918 287.871 76.0874C288.176 74.6687 288.43 73.4911 288.631 72.5544C288.832 71.6178 289.009 70.7925 289.161 70.0786C289.424 68.8582 289.433 67.9338 289.189 67.3053C289.077 66.9993 288.904 66.7194 288.68 66.4833C288.455 66.2471 288.185 66.0596 287.885 65.9324C287.103 65.6278 286.267 65.4861 285.429 65.516C283.477 65.5145 281.53 65.6922 279.611 66.0468C278.023 66.3219 276.46 66.729 274.94 67.2641C274.718 66.6697 274.621 66.0354 274.657 65.4015C274.684 64.8264 274.756 64.2541 274.872 63.69C274.972 63.2913 275.126 62.908 275.329 62.5504C275.518 62.1721 275.81 61.8548 276.171 61.6352C276.915 61.2324 278.379 60.7901 280.562 60.308C283.055 59.7904 285.596 59.5433 288.141 59.5712C291.435 59.5712 293.682 60.2546 294.884 61.6214C296.085 62.9883 296.317 65.397 295.579 68.8476L294.714 72.8794C294.105 75.7717 293.469 78.67 292.807 81.5745C292.145 84.479 291.519 87.2248 290.927 89.812C290.317 92.3748 289.735 94.6188 289.18 96.5439C287.716 97.2763 286.184 97.8634 284.606 98.2967C282.472 98.8805 280.267 99.1579 278.055 99.1204ZM279.775 93.9445C280.603 93.9434 281.425 93.8153 282.213 93.5647C282.87 93.3932 283.482 93.0809 284.006 92.6494C284.281 91.8409 284.586 90.7243 284.921 89.2995C285.255 87.8808 285.598 86.3843 285.964 84.8146C286.33 83.2449 286.655 81.7713 286.948 80.403C286.426 80.1264 285.859 79.9451 285.273 79.8675C284.694 79.7737 284.108 79.7233 283.521 79.7165C282.751 79.7147 281.984 79.8038 281.234 79.9819C280.488 80.1738 279.796 80.5391 279.217 81.0482C278.496 81.7032 277.907 82.491 277.484 83.3685C276.871 84.6498 276.427 86.0049 276.162 87.4003C275.896 88.4951 275.77 89.6191 275.787 90.7456C275.782 91.4616 275.987 92.1633 276.377 92.7638C276.709 93.2303 277.195 93.5654 277.749 93.7111C278.411 93.878 279.092 93.9565 279.775 93.9445Z" fill="#3F59A3"/>
<path d="M17.2476 103.4C17.2476 103.4 -3.86307 87.7491 0.626538 58.5271C1.04235 55.823 2.19987 53.0684 3.32929 50.4936C5.52072 45.4902 8.94833 41.1558 12.3198 36.574C14.809 33.201 17.006 29.6593 18.2029 25.8927C19.4494 21.8628 20.1339 17.6801 20.237 13.4629C20.237 19.2084 19.9841 25.2012 18.304 30.8286C16.9611 35.326 14.0504 39.458 11.7803 43.725C9.43157 48.1493 7.2851 52.6636 6.01519 57.3465C3.60463 66.3414 -0.0196515 83.6003 17.2533 103.4" fill="#00C53C"/>
<path d="M31.6446 8.87207C29.6274 12.0652 27.3236 15.056 25.7447 18.4291C22.5137 25.3608 21.0078 32.9558 22.8115 40.3147C25.1547 49.8717 33.7349 56.7641 40.0676 64.8594C42.658 68.1763 45.4057 71.9822 46.2485 76.1873C46.2485 76.266 46.2766 76.356 46.2935 76.4347C46.9172 79.9708 46.1642 84.1421 45.7934 87.3353C46.0631 85.9973 46.389 83.8386 46.6699 82.242C47.4545 77.8448 46.9872 73.3155 45.3214 69.1713C44.0633 66.437 42.5367 63.8344 40.7643 61.402C37.8481 57.2082 33.9878 53.4191 31.1614 49.1915C25.7727 41.1186 23.1768 31.421 25.4019 22.6117C26.6156 17.8276 28.9025 13.2458 31.6559 8.88894L31.6446 8.87207Z" fill="#FF8C00"/>
<path d="M38.9127 0C36.4741 5.29572 34.1253 10.6814 32.0969 16.1008C30.0684 21.5202 29.0513 26.2875 29.5964 31.7687C30.1583 37.6603 32.9678 43.625 35.929 48.6341C38.9184 53.733 42.4471 58.0899 45.5825 63.0877C48.1561 67.1522 49.9373 69.5696 51.0892 74.2638C52.213 78.7218 52.8817 85.5073 52.3984 90.0666C53.2582 85.0632 53.8482 79.9474 53.4717 74.8878C53.2745 72.1681 52.7074 69.488 51.786 66.9217C50.8026 64.1614 49.3642 61.7834 47.8526 59.2817C42.2673 49.9158 35.9852 40.2857 34.4681 29.2839C33.8888 24.3421 34.1165 19.3391 35.1424 14.4705C35.6031 12.0362 36.2044 9.61325 36.8618 7.20151C37.4968 4.9022 38.806 2.28244 38.9352 0H38.9127Z" fill="#FF8C00"/>
<path d="M41.7083 40.0384C55.8234 62.2782 55.6492 60.4961 57.4922 69.9013C59.8016 81.707 54.5422 91.236 50.4403 97.7685C50.1706 98.1957 48.9962 99.9329 48.9962 99.9329C48.9962 99.9329 60.0826 89.1053 61.4087 76.0853C61.4873 75.3432 61.6615 72.611 61.6447 70.8401C61.4368 48.3024 44.8157 46.4585 40.6744 27.2488C38.9494 19.2265 40.843 11.5078 40.843 11.5078C41.6297 6.67872 42.9445 3.0358 42.7254 2.96272C42.5062 2.88963 40.4778 7.81994 39.0056 13.5598C38.3369 16.1683 37.9155 18.3833 37.7638 19.3109C36.3759 27.9628 38.6516 35.2261 41.6971 40.0496" fill="#FF8C00"/>
<path d="M30.4835 58.2521C30.3769 57.7696 30.1636 57.3171 29.8593 56.928C29.5549 56.5388 29.1672 56.2229 28.7247 56.0034C28.0559 55.7347 27.3438 55.5899 26.6232 55.5761C26.1217 55.5708 25.6245 55.6678 25.1617 55.8611C24.699 56.0544 24.2804 56.34 23.9317 56.7005C23.2389 57.4748 22.7554 58.4133 22.5269 59.4271C21.9144 61.9287 21.4031 67.3987 20.9592 75.6796C20.5172 83.3477 20.2943 90.0526 20.2905 95.7944C20.2905 97.5765 20.2905 98.9988 20.3804 100.039C20.4085 100.562 20.4422 101.006 20.4928 101.371C20.5269 101.722 20.6101 102.067 20.74 102.394C21.0911 103.237 21.6987 103.947 22.4763 104.424C23.2889 104.884 24.2119 105.114 25.1454 105.087C26.3153 105.152 27.4656 104.766 28.3595 104.008C28.7565 103.6 29.0648 103.114 29.265 102.581C29.4652 102.048 29.5529 101.479 29.5226 100.91C29.4675 99.5738 29.0498 98.2775 28.3145 97.1605C28.1794 92.4585 28.3164 87.7527 28.7247 83.0666C29.5226 74.8963 30.1838 68.7929 30.7082 64.7565V64.689C30.8037 63.5647 30.8487 62.5809 30.8487 61.6533C30.8795 60.5173 30.7547 59.3824 30.4778 58.2802M27.5559 58.6288L27.6178 58.6681C27.6031 58.6634 27.5874 58.6634 27.5728 58.6681" fill="#3F59A3"/>
</svg>
